<svg width="100%" height="100%" viewBox="0 0 340 344" fill="none" xmlns="http://www.w3.org/2000/svg">

<path d="M141.055 57.7742C142.047 62.5373 146.314 65.7527 152.857 75.5171L152.915 75.5938L152.987 75.6641C153.007 75.6823 153.675 76.4533 154.574 77.5121C153.992 78.4402 156.207 81.4049 159.467 83.6703C159.558 83.8357 159.594 83.9383 159.539 83.95L159.676 83.8115C160.128 84.1178 160.597 84.4093 161.08 84.6772C163.642 86.1016 166.709 86.7794 168.405 87.4246C168.624 88.065 168.882 88.7599 169.173 89.5138C168.893 89.5147 168.545 89.566 168.098 89.6986C167.947 89.7466 167.792 89.8095 167.637 89.8749L166.791 89.7488C166.791 89.7488 167 89.8602 167.306 90.0266C164.976 91.1678 162.262 94.0956 161.193 95.3179C156.653 90.2089 152.243 85.8738 148.623 83.2849C150.459 85.2678 152.724 87.9437 155.22 91.0399C152.429 89.8695 144.859 86.8744 137.856 85.7011C129.36 84.2795 150.632 91.2417 161.732 99.4033C164.635 103.235 167.606 107.291 170.416 111.25C170.394 111.639 170.625 111.972 170.872 112.224L170.866 112.234C170.878 112.243 170.899 112.259 170.923 112.278C171.024 112.38 171.123 112.465 171.204 112.536C171.285 112.606 171.387 112.692 171.501 112.788C172.732 114.545 173.926 116.271 175.058 117.944C175.354 118.955 175.376 119.463 175.241 118.474L175.422 118.478C180.403 125.855 184.152 132.061 184.812 134.58C185.01 135.339 185.027 136.692 184.905 138.501C183.204 143.301 182.808 149.616 181.35 152.342C177.69 159.193 176.336 168.711 176.18 168.557C176.18 168.557 174.909 182.318 174.286 190.691C174.097 191.29 173.926 191.8 173.767 192.211C170.68 191.729 166.393 191.269 163.143 190.149L163.827 172.782L159.175 170.256C164.02 171.48 172.366 171.884 173.136 169.652C173.256 169.298 173.136 169.652 173.24 169.648C173.222 169.648 173.798 167.545 173.798 167.545C173.417 167.357 172.571 168.368 171.407 168.543C170.392 168.695 168.108 168.749 165.629 168.592C163.373 162.214 163.187 149.147 163.675 141.479C163.763 140.529 163.851 139.553 164.314 139.194C165.405 138.344 172.156 142.628 174.256 142.621C176.352 142.612 167.014 136.746 166.081 135.557C165.141 134.367 173.7 134.751 178.283 133.29C182.87 131.825 168.573 132.542 167.26 132.814C165.947 133.091 174.326 128.32 171.152 128.89C169.559 129.177 166.461 130.037 163.781 130.821C150.167 117.39 136.413 105.736 133.917 97.1235C130.814 86.4019 134.881 79.2091 135.161 78.4943C135.681 77.183 145.926 80.6097 145.926 80.6097C145.926 80.6097 141.663 75.0152 142.219 73.1339C142.779 71.2564 151.571 80.9201 152.029 80.1927C152.186 79.9446 144.006 71.012 142.481 66.7221C141.25 63.2393 140.988 60.1471 141.055 57.7742ZM158.493 189.431C160.299 190.639 164.816 193.062 173.464 194.412L173.524 194.037C173.666 194.177 173.836 194.342 174.029 194.512C174.032 194.51 174.03 194.508 174.033 194.506C174.03 194.508 174.032 194.51 174.031 194.513L174.029 194.512C173.96 194.86 173.941 195.201 173.978 195.533C173.949 196.25 173.942 196.743 173.973 196.917C174.051 197.398 177.307 200.674 179.832 202.069C185.628 205.261 193.785 207.591 195.14 208.133C197.09 208.909 198.95 214.938 198.95 214.938C198.95 214.938 166.726 213.45 153.919 206.842C154.127 206.283 154.348 205.619 154.581 204.868C165.028 210.145 172.733 208.096 172.733 208.096C172.733 208.096 159.208 206.528 159.167 201.298C159.126 196.074 163.083 192.713 163.083 192.713C160.502 192.433 159.078 191.179 158.328 190.155C158.389 189.907 158.439 189.665 158.493 189.431ZM153.375 219.606C154.385 218.569 155.31 217.61 156.131 216.75C157.128 217.237 158.135 217.721 159.165 218.194C158.204 219.223 157.158 220.327 156.044 221.491C155.172 220.829 154.283 220.197 153.375 219.606ZM146.629 231.179C142.756 235.143 138.793 239.205 135.307 242.899C133.435 242.191 131.423 241.861 129.351 241.918C133.598 238.697 138.702 234.067 143.518 229.433C144.582 229.951 145.618 230.537 146.629 231.179ZM128.994 244.143C130.593 244.05 132.155 244.248 133.629 244.685C129.286 249.344 125.921 253.23 124.81 255.285L124.806 255.287C124.125 256.621 122.049 261.137 123.987 263.164C124.004 263.184 124.021 263.199 124.036 263.215C125.74 264.904 128.993 263.426 130.071 262.935C132.665 261.757 137.091 257.739 142.132 252.546C143.841 256.972 143.104 262.174 139.915 266.185C136.656 269.086 133.043 271.305 129.446 271.589C125.998 271.751 122.533 270.625 119.849 268.151C114.307 263.088 114.153 254.423 119.38 248.743C121.914 245.991 125.329 244.357 128.994 244.143ZM141.211 228.412C134.369 234.921 127.213 241.246 123.239 243.293L123.241 243.295C121.191 244.202 119.315 245.524 117.745 247.234C111.816 253.675 111.891 263.41 117.921 269.391C118.056 269.525 118.2 269.66 118.343 269.79C121.458 272.657 125.465 273.983 129.458 273.823L129.461 273.829C129.49 273.83 129.522 273.822 129.555 273.818C133.694 273.628 137.804 271.84 140.87 268.508C141.115 268.243 141.337 267.978 141.558 267.706C148.667 261.343 153.886 252.257 154.211 251.684C155.662 249.013 157.055 246.565 158.396 244.307C164.071 255.864 162.366 269.98 153.107 279.315C141.315 291.201 121.68 290.907 109.334 278.659C96.9844 266.411 96.5292 246.778 108.321 234.89C117.035 226.104 130.035 223.981 141.211 228.412ZM102.092 224.109C85.7207 240.614 78.8606 266.035 100.534 287.532C110.122 297.04 124.289 301.626 137.413 300.164C123.934 302.554 109.411 298.499 98.8436 288.016C81.7445 271.054 81.3641 243.605 98.0092 226.824C100.605 224.206 103.473 221.997 106.518 220.202C105.03 221.347 103.551 222.637 102.092 224.109ZM163.488 228.53C165.521 226.112 167.326 223.936 168.791 222.164C169.536 222.43 170.277 222.694 171.022 222.941C169.257 224.827 167.22 227.234 164.933 230.314C164.465 229.71 163.986 229.115 163.488 228.53ZM157.16 242.027C155.599 244.616 153.973 247.461 152.269 250.602C152.215 250.696 149.227 255.89 144.822 261.095C145.64 257.633 145.301 254 143.813 250.794C147.387 247.035 151.193 242.796 154.833 238.633C155.689 239.727 156.465 240.858 157.16 242.027ZM198.68 128.271C198.325 127.837 197.987 127.475 197.675 127.24C197.594 125.735 197.496 124.238 197.397 123.338C197.379 123.149 197.335 122.978 197.286 122.815C199.286 123.938 201.636 125.259 204.236 126.721C204.172 127.797 204.066 129.564 203.954 131.368L198.68 128.271ZM209.904 134.078L210.324 130.287L219.627 135.746C219.268 136.493 218.764 137.63 218.235 139.109C216.196 137.903 213.525 136.298 209.904 134.078ZM187.791 129.054C187.635 131.786 187.519 133.97 187.283 134.219C186.969 132.199 185.289 128.688 182.739 124.402C183.718 125.408 185.01 126.605 186.22 127.525C186.652 127.942 187.111 128.394 187.612 128.887C187.674 128.951 187.732 128.996 187.791 129.054ZM181.414 122.227C179.14 118.579 176.352 114.499 173.303 110.36C173.689 107.633 174.121 103.732 174.021 100.583C178.015 109.137 182.636 118.232 184.014 120.974C184.004 121.013 183.992 121.063 183.983 121.106C183.754 122.017 182.059 121.98 181.414 122.227ZM171.269 107.641C168.969 104.611 166.564 101.595 164.151 98.7363C164.94 96.0104 170.015 91.6005 170.015 91.6005L170.017 91.6022L170.016 91.6035L170.015 91.6005C170.015 91.6005 171.702 99.1613 171.269 107.641ZM223.954 138.287L225.536 139.213C225.082 140.325 224.673 141.442 224.325 142.566C223.864 142.317 223.359 142.046 222.757 141.709C223.109 140.572 223.505 139.429 223.954 138.287ZM241.497 132.188C255.037 118.537 277.242 118.534 291.002 132.181C296.993 138.124 300.732 146.64 301.255 155.541C301.838 165.404 298.338 174.689 291.399 181.684C277.862 195.334 255.654 195.337 241.894 181.688C234.291 174.147 228.644 158.413 233.818 144.187C235.886 145.626 240.402 148.553 249.98 154.183C249.657 155.198 249.432 156.237 249.32 157.283L249.248 156.65C245.594 154.327 237.672 149.639 236.517 148.994L233.595 153.403C233.595 153.403 244.726 160.775 249.987 163.715C250.706 165.945 251.932 168.035 253.7 169.786C259.737 175.774 269.615 175.607 275.762 169.408C281.907 163.213 281.995 153.333 275.96 147.345C269.921 141.355 260.042 141.525 253.896 147.721C253.705 147.915 253.537 148.123 253.358 148.321C245.469 144.063 238.364 140.276 236.241 139.022C237.621 136.646 239.353 134.348 241.497 132.188ZM304.686 168.341C305.215 166.161 305.627 163.767 305.845 161.223C306.053 158.676 306.029 155.978 305.732 153.22C305.442 150.463 304.791 147.659 303.87 144.904C302.944 142.145 301.696 139.452 300.216 136.89C298.758 134.334 296.948 131.88 295.163 129.69C294.659 129.141 294.156 128.597 293.655 128.053C293.153 127.517 292.679 126.932 292.138 126.5C291.075 125.589 290.109 124.597 288.941 123.834C288.379 123.423 287.827 123.023 287.275 122.625C286.692 122.275 286.114 121.926 285.542 121.583C284.42 120.85 283.222 120.315 282.078 119.752C280.938 119.178 279.747 118.805 278.637 118.331C277.492 117.96 276.391 117.574 275.311 117.282C273.143 116.719 271.125 116.27 269.311 116.016C268.407 115.868 267.557 115.77 266.767 115.699C265.977 115.607 265.247 115.573 264.588 115.535C261.953 115.389 260.435 115.488 260.435 115.488C260.435 115.488 260.807 115.425 261.516 115.345C262.223 115.274 263.266 115.162 264.593 115.142C265.257 115.13 265.994 115.106 266.798 115.142C267.601 115.151 268.471 115.187 269.397 115.268C271.251 115.383 273.337 115.678 275.588 116.153C276.709 116.395 277.863 116.726 279.065 117.046C279.652 117.25 280.25 117.456 280.857 117.665C281.465 117.879 282.086 118.082 282.683 118.365C283.891 118.907 285.161 119.414 286.362 120.131C286.974 120.468 287.596 120.799 288.208 121.162C288.793 121.57 289.389 121.979 289.987 122.39C291.217 123.158 292.31 124.208 293.476 125.175C294.088 125.655 294.553 126.202 295.07 126.734C295.575 127.272 296.084 127.813 296.592 128.356C298.591 130.759 300.398 133.184 301.964 135.876C303.492 138.564 304.776 141.392 305.724 144.294C306.681 147.189 307.253 150.159 307.499 153.046C308.006 158.838 307.143 164.261 305.799 168.645C304.474 173.052 302.682 176.454 301.344 178.742C299.975 181.029 298.995 182.193 298.995 182.193C298.995 182.193 299.829 180.924 300.999 178.557C302.174 176.198 303.612 172.695 304.686 168.341ZM199.066 33.2896C196.714 36.7631 196.381 40.7031 196.381 40.7031L197.979 40.9816C198.382 38.7109 202.04 34.9559 203.581 33.449C207.093 36.399 213.396 42.4071 214.53 44.0709C217.822 48.9015 217.045 53.7016 214.225 56.2498C214.091 56.1431 213.946 56.0369 213.784 55.9291C214.241 55.3831 215.234 53.8097 215.124 50.4107C214.983 46.1884 212.178 41.8549 206.8 37.5427L205.564 37.437C205.416 37.5202 202.439 38.2488 200.642 42.7672C200.381 43.4275 200.146 44.1631 199.946 44.995C199.195 49.896 200.12 52.2045 203.595 59.0462C203.966 59.5913 206.572 62.1373 207.666 63.5704C206.882 63.9929 205.836 64.5661 204.645 65.1588L204.648 65.1561L205.625 63.4568L198.822 58.0444L191.406 58.9256C191.534 51.8993 192.437 41.7307 196.384 36.003C197.147 34.8996 198.06 34.0059 199.066 33.2896ZM210.772 54.928C209.313 54.9285 207.97 55.6128 206.766 56.953L204.27 57.2547C202.88 54.3689 200.029 47.0226 200.789 44.1191C201.612 40.986 204.586 39.2247 205.622 38.458C211.031 41.4351 212.784 47.1438 212.897 50.4829C213.004 53.707 210.927 54.907 210.907 54.9233L210.921 54.9347C210.872 54.9314 210.819 54.9255 210.772 54.928ZM220.769 43.0441C216.062 38.1937 209.896 33.5842 205.452 30.9093C210.107 30.3071 214.599 31.6116 215.393 32.8822C215.672 33.4107 217.918 38.0728 220.769 43.0441ZM145.712 42.1011C142.24 44.8941 136.462 49.8315 133.278 56.5078C129.825 63.7381 129.066 72.7643 128.023 76.6119C127.801 77.42 127.558 78.1557 127.287 78.7888C119.825 93.6767 123.859 105.437 131.629 112.1C160.71 134.872 159.165 139.61 158.698 141.277C157.919 144.026 155.536 153.258 155.334 157.562C155.096 162.545 155.479 167.567 155.957 172.103L155.958 172.104C156.497 177.225 157.165 181.72 157.238 184.816C157.125 185.333 156.995 185.931 156.861 186.562C155.632 186.175 122.427 175.684 114.451 174.325C91.5438 170.418 40.7478 196.339 41.1245 197.647C41.5053 198.949 51.9537 196.678 51.9537 196.678C53.6828 196.028 69.1163 190.387 89.3175 189.432C104.638 188.704 122.7 190.682 139.606 199.581C137.089 201.055 135.605 202.568 135.671 204.698C138.305 206.725 145.352 211.303 154.048 215.715C153.243 216.536 152.361 217.43 151.408 218.392C133.861 208.167 111.135 210.431 96.428 225.257C78.9182 242.911 79.2997 271.77 97.2753 289.597C115.248 307.425 144.109 307.568 161.617 289.917C177.09 274.317 178.583 249.969 166.313 232.214C169.051 228.486 171.422 225.735 173.4 223.69C183.185 226.637 192.707 227.499 199.086 223.449L199.964 223.044C221.962 209.846 209.549 181.709 211.686 184.941L200.121 145.955L198.076 134.634L197.578 132.404C198.024 132.692 198.492 133 198.966 133.316L198.986 133.49L201.97 135.269C202.925 135.875 203.787 136.403 204.432 136.738L216.775 144.102C215.395 150.123 214.691 158.699 217.462 168.841C220.843 178.815 225.626 183.9 224.843 182.065C224.056 180.225 223.831 177.805 223.831 177.805C223.831 177.805 218.298 163.331 221.463 146.899L223.058 147.85C220.281 163.843 226.806 180.074 235.22 188.417C252.718 205.775 280.96 205.769 298.179 188.409C307.004 179.513 311.458 167.704 310.714 155.16C310.049 143.839 305.296 133.01 297.675 125.451C280.178 108.096 251.933 108.101 234.715 125.459C232.241 127.954 230.197 130.59 228.525 133.314L226.73 132.268C232.426 122.766 243.481 116.159 244.015 114.711C242.433 111.032 221.756 129.377 221.756 129.377L193.102 112.726L186.069 108.352C186.069 108.352 179.659 98.1354 176.493 91.659L177.877 91.4317L177.078 91.3093C179.339 90.6492 182.178 89.5693 182.609 88.2152C183.34 85.9241 184.584 79.5134 181.295 77.913C180.407 77.4803 173.603 74.661 171.626 75.2943C170.578 75.6298 168.34 71.045 167.459 70.1729C167.207 69.9211 166.811 69.8278 166.313 69.8508C163.809 64.7349 162.689 58.6195 167.178 56.291C168.629 56.4531 169.923 56.2475 170.562 55.7653C171.247 55.2558 171.743 54.5612 172.112 53.8C181.501 46.6554 182.349 36.4531 180.527 39.8717C178.706 43.288 176.255 45.6669 176.25 45.673C178.524 41.2233 180.845 35.6999 179.583 33.708C177.338 30.1755 179.991 35.4208 175.428 43.7018C175.428 43.7018 174.344 35.566 172.368 33.8726C170.589 32.3412 174.668 39.8453 173.392 48.8675C173.279 49.0722 173.179 49.2743 173.084 49.475C173.102 49.0413 173.098 48.7234 173.092 48.6072C173.092 48.6072 171.724 53.7991 170.288 54.8693C169.7 55.3109 167.566 55.6625 166.647 54.6548L165.507 53.7038L165.931 55.4451C165.905 55.676 164.917 56.2848 164.022 57.5964C164.406 53.7401 165.098 45.3724 164.039 44.2889C162.653 42.8727 159.237 41.9249 158.974 42.1898C158.714 42.4518 162.38 43.8538 162.566 44.9804C162.755 46.1102 161.247 51.0169 161.247 51.0169C161.247 51.0169 161.32 51.6724 161.457 52.6729C160.459 50.2433 158.916 47.8052 156.515 46.0796C156.515 46.0796 160.603 55.2101 162.664 61.4115C162.434 63.5568 162.853 66.4275 164.624 70.2417C162.722 70.9288 160.276 72.3993 158.234 73.9583C156.709 71.9909 151.124 64.6378 148.715 59.56C146.964 55.8726 143.54 54.4807 143.895 52.8288C144.07 52.0078 144.558 50.9888 145.226 49.8662C147.302 47.4631 149.608 45.309 151.85 43.469C156.856 40.6323 163.28 37.4706 164.737 39.0184C167.197 41.6327 166.525 47.4142 166.892 52.3077C166.892 52.3077 169.277 36.728 166.821 35.3358C167.342 35.0064 168.17 31.5237 168.773 31.0884C170.371 29.9308 172.243 31.1439 174.257 31.3861C175.369 31.5197 176.458 30.4538 177.732 30.6576C185.344 31.1497 185.289 40.8893 185.289 40.8893C185.298 40.8977 186.727 37.4125 186.734 37.425C189.341 40.9685 189.532 46.1068 189.227 52.7701C189.22 52.7705 187.728 52.7752 186.164 53.0759C185.324 48.3517 186.487 39.6536 184.435 44.0989C182.013 49.3511 183.196 57.6904 183.285 58.1417C183.435 61.1687 183.577 65.4765 183.053 69.2063C182.789 71.0461 181.826 72.8688 181.002 74.2306C180.357 75.3042 183.303 75.7396 184.006 74.7287C186.841 70.6202 186.641 66.9389 186.794 59.2885L186.798 59.0668L186.719 58.8619C186.537 58.4012 186.522 58.162 186.527 58.0664C186.907 57.9136 187.82 58.0282 188.924 58.3593C188.789 60.6546 188.655 63.0884 188.578 65.6699L191.657 67.6082C196.682 71.8217 210.147 64.0011 210.147 64.0011C210.147 64.0011 207.134 61.1442 206.412 59.345L208.005 58.9365L208.242 58.6562C209.057 57.6653 209.91 57.1589 210.764 57.1527C212.218 57.1424 213.405 58.5137 213.419 58.5289L213.473 58.5943L213.54 58.6516C216.911 61.5612 220.02 62.5721 222.778 61.6577C227.706 60.0267 229.368 52.8157 229.436 52.5076L229.56 51.9469L229.18 51.5265C224.059 45.7657 217.078 32.6818 217.009 32.5517L216.971 32.4869C213.664 27.1854 209.748 24.0358 205.335 23.1089C200.104 22.0141 196.051 24.479 195.487 24.8481C189.068 28.2169 187.046 31.7653 186.475 34.1276L184.408 31.8957C182.221 29.0129 179.364 27.5622 176.076 27.1504C169.215 26.2871 162.37 31.1903 160.992 32.2426C158.792 32.676 155.074 35.006 150.963 38.0396C150.322 38.3947 149.641 38.8758 148.957 39.546C148.956 39.5467 148.954 39.548 148.952 39.5508C147.88 40.376 146.793 41.2313 145.712 42.1011Z" fill="#00006A"/>
<path d="M166.197 185.648L165.054 185.82L164.199 185.069L165.534 177.606L166.646 176.507L173.464 175.478L174.585 176.493L174.151 178.933L171.24 179.372L171.467 178.104L171.286 177.897L168.58 178.305L168.223 178.789L167.377 183.201L170.641 182.709L170.784 181.914L168.524 180.729L173.977 179.906L173.141 184.599L172.041 183.629L167.096 184.376L166.197 185.648Z" fill="#00006A"/>
</svg>
