<svg width="746" height="210" viewBox="0 0 746 210" fill="none" xmlns="http://www.w3.org/2000/svg">
<path d="M554.255 209.124H650.118L658.505 194.06H593.182C594.852 190.986 596.522 187.912 598.19 184.838H656.003C658.337 180.995 660.672 177.153 663.006 173.31H604.451C606.15 170.183 607.846 167.054 609.545 163.927H675.285C677.992 159.064 680.699 154.203 683.407 149.342H586.72L554.255 209.124Z" fill="black"/>
<path d="M220.396 209.124H316.259L324.647 194.06H259.323C260.993 190.986 262.663 187.912 264.331 184.838H322.145C324.479 180.995 326.813 177.153 329.147 173.31H270.592C272.291 170.183 273.99 167.054 275.687 163.927H341.427C344.134 159.064 346.841 154.203 349.548 149.342H252.861L220.396 209.124Z" fill="black"/>
<path d="M427.329 171.949C426.302 173.939 424.187 175.755 421.8 176.96C419.972 177.882 417.984 178.444 415.979 178.491H369.843C372.108 173.636 374.372 168.781 376.637 163.926H421.334C426.685 163.996 428.064 166.89 428.019 169.296C428.001 170.24 427.761 171.109 427.329 171.949ZM567.381 151.938C563.626 150.036 558.532 149.356 553.519 149.341H469.579L460.214 165.945C460.359 163.359 459.646 160.662 458.277 158.463C456.845 156.159 454.695 154.403 452.39 152.95C450.367 151.675 448.223 150.634 445.949 150.011C444.682 149.663 443.373 149.448 442.061 149.341H355.256L322.553 209.126H353.402C356.158 204.226 358.916 199.324 361.673 194.424C370.276 199.324 378.879 204.226 387.484 209.126H430.337C422.234 204.267 414.131 199.408 406.028 194.549C410.86 194.304 415.66 193.666 420.437 192.795C428.771 191.277 437.04 189.049 444.494 184.901C447.535 183.21 450.439 181.198 452.957 178.809C447.258 188.914 441.557 199.019 435.858 209.126H466.331C474.405 194.193 482.48 179.263 490.556 164.332H535.694C539.059 164.332 541.205 167.929 539.604 170.888C532.71 183.635 525.819 196.379 518.925 209.126H547.896C556.216 194.084 564.538 179.044 572.861 164.006C574.873 158.924 572.252 154.403 567.381 151.938Z" fill="black"/>
<path d="M194.1 194.056H146.568C140.748 193.737 140.748 185.154 146.568 184.834C146.738 184.824 146.906 184.824 147.076 184.834H198.969C197.346 187.908 195.723 190.982 194.1 194.056ZM235.998 153.195C234.353 151.746 232.662 150.959 230.656 150.392C228.026 149.648 224.854 149.279 221.899 149.336H141.861C138.896 154.197 135.93 159.06 132.963 163.921H202.642C205.988 163.921 208.134 167.481 206.57 170.442C206.066 171.395 205.562 172.352 205.058 173.307H145.435C141.244 173.36 136.666 174.041 132.422 175.258C125.833 177.147 120.05 180.33 116.099 184.414C115.847 184.675 115.603 184.939 115.367 185.205C117.63 181.24 119.892 177.272 122.155 173.307H65.8334C63.7021 177.149 61.5729 180.992 59.4436 184.834H86.0601L80.8016 194.056H34.401C30.9151 194.056 28.7859 190.224 30.6282 187.265C34.7494 180.648 38.8685 174.03 42.9876 167.415C44.5533 164.899 46.3116 163.921 49.2749 163.921H119.946C122.786 159.06 125.626 154.197 128.467 149.336H48.9573C45.9612 149.514 42.963 149.959 40.0592 150.707C37.0856 151.472 34.2104 152.554 31.3905 153.834C25.7939 156.378 20.4124 159.714 16.2646 164.11C12.1967 168.417 9.31328 173.744 6.15118 179.211C3.74529 183.373 1.17955 187.615 0.314734 192.089C-0.349244 195.522 -0.011107 199.087 1.79434 201.823C3.88874 204.992 7.95868 207.043 11.9897 208.102C14.9632 208.885 17.9184 209.129 20.894 209.121H101.729C105.037 203.321 108.344 197.522 111.652 191.722C111.545 192.103 111.457 192.491 111.39 192.88C110.064 200.397 115.675 209.43 136.227 209.121H214.649C222.752 194.054 230.855 178.988 238.958 163.921C240.837 159.038 238.468 155.369 235.998 153.195Z" fill="black"/>
<path d="M528.165 128.018L548.497 115.143L661.733 115.143L679.484 128.018L528.165 128.018Z" fill="#FFD400"/>
<path d="M522.31 126.861H495.563L478.588 114.6L534.936 13.454L564.172 0.485931H723.789L745.952 16.9911L727.574 50.0568H659.424L669.015 32.8692L665.574 29.6026H602.244L592.399 35.5907L557.79 95.2667H634.197L640.203 84.5017L592.569 63.2421H720.246L684.889 126.861L663.066 111.034H547.302L522.31 126.861Z" fill="black"/>
</svg>
