<svg width="348" height="500" viewBox="0 0 348 500" fill="none" xmlns="http://www.w3.org/2000/svg">
<path d="M347.698 132.025C347.698 132.025 348.646 117.683 334.853 110.19V47.2221C334.853 40.8814 331.997 34.9937 327.016 31.0689C324.303 28.9313 321.17 27.5494 317.885 26.9674C315.765 21.2165 311.774 16.2956 306.385 12.9734C299.094 8.47926 290.296 7.59548 282.246 10.5476L256.193 20.1042L256.219 20.1745L196.227 1.30548C187.695 -1.37809 178.664 0.117016 171.45 5.40897C164.236 10.7009 160.101 18.8669 160.101 27.8121V27.8483C158.848 28.5611 157.661 29.4078 156.563 30.3873C152.035 34.4293 149.533 40.2261 149.7 46.2944L149.968 56.0336C145.348 57.141 141.127 59.5297 137.727 63.0345C132.905 68.0052 130.365 74.5549 130.576 81.4777L131.047 96.9805C131.17 101.024 134.573 104.208 138.59 104.079C142.633 103.956 145.811 100.579 145.688 96.5362L145.218 81.0324C145.129 78.1057 146.203 75.3362 148.242 73.2337C150.281 71.1311 153.017 69.9739 155.946 69.9739H252.495C258.413 69.9739 263.228 74.7883 263.228 80.7072V107.359H241.66C217.709 107.359 217.483 131.843 217.483 131.843C217.483 131.843 217.14 156.516 241.66 156.516H263.228V176.748C263.228 182.665 258.412 187.481 252.495 187.481H158.863C153.024 187.481 148.311 182.91 148.135 177.074L147.34 150.872C147.217 146.828 143.805 143.642 139.797 143.773C135.754 143.895 132.575 147.273 132.698 151.316L133.493 177.517C133.861 189.64 142.506 199.453 153.962 201.66L154.733 229.813C144.64 232.718 137.231 242.029 137.231 253.046V271.341C137.231 281.947 144.1 290.973 153.619 294.223C151.916 300.212 149.316 305.956 145.932 311.188L139.221 308.127C133.361 305.455 126.796 305.231 120.734 307.496C114.672 309.76 109.862 314.234 107.191 320.093L99.5989 336.739C98.3762 339.421 97.6721 342.251 97.4788 345.112L37.9382 374.939C14.537 386.662 0 410.204 0 436.378V447.338C0 459.148 12.8769 482.125 13.0546 482.433C19.2811 493.268 30.9129 499.999 43.4089 499.999H208.328C226.061 499.999 238.176 487.361 238.684 486.823C238.764 486.737 242.368 482.747 245.171 482.722C245.187 482.722 245.201 482.721 245.217 482.722C249.856 482.747 252.568 486.72 252.641 486.797C260.473 495.188 271.545 500 283.021 500H300.213C311.008 500 320.651 493.554 324.777 483.579C324.858 483.382 324.931 483.181 324.996 482.978L334.046 454.215L334.044 454.214C334.565 452.646 334.857 450.975 334.857 449.235V153.685C348.651 147.711 347.698 132.025 347.698 132.025ZM287.292 24.3004C291.098 22.9049 295.256 23.32 298.699 25.442C300.195 26.3649 301.448 27.5553 302.444 28.9186C302.444 28.9186 293.245 31.1148 291.916 31.4019L279.004 27.3404L287.292 24.3004ZM180.116 17.2185C183.527 14.7155 187.799 14.0095 191.833 15.278L255.518 35.3091C247.373 35.3121 239.211 34.7369 231.065 33.5816L174.95 25.6246C175.505 22.2711 177.306 19.28 180.116 17.2185ZM164.599 55.3266L164.342 45.893C164.276 43.5034 165.551 41.9995 166.316 41.3159C167.082 40.6323 168.719 39.5357 171.088 39.8716L210.342 45.438L210.366 55.3266H164.599V55.3266ZM252.493 55.3266H225.016L224.997 47.5161C224.997 47.5161 266.617 52.9877 299.322 44.7358L312.904 41.4692C314.675 41.0425 316.517 41.4458 317.95 42.5747C319.383 43.7036 320.206 45.3979 320.206 47.2221V107.359H277.874V80.7063C277.874 66.7112 266.487 55.3266 252.493 55.3266ZM210.715 202.128L210.799 237.613H205.938C201.38 232.142 194.588 228.866 187.365 228.866H169.358V228.867L168.625 202.128H210.715ZM192.042 272.122C186.344 272.122 181.711 267.487 181.711 261.79C181.711 256.535 185.985 252.261 191.24 252.261H272.294C277.991 252.261 282.626 256.895 282.626 262.593C282.626 267.847 278.351 272.122 273.097 272.122H192.042ZM210.968 308.689C210.999 321.783 206.725 334.527 198.886 344.95L176.119 334.567C174.253 327.642 169.462 321.917 162.837 318.896L159.384 317.321C163.488 310.569 166.561 303.178 168.441 295.515H187.366C194.535 295.515 201.372 292.229 205.936 286.769H210.916L210.968 308.689ZM151.878 271.34V253.045C151.878 247.79 156.152 243.516 161.407 243.516H175.439C170.315 247.952 167.063 254.497 167.063 261.792C167.063 269.435 170.517 276.284 175.942 280.87H161.407C156.153 280.869 151.878 276.594 151.878 271.34ZM152.75 340.939C154.104 340.94 155.418 341.226 156.656 341.79L230.768 375.589C233.164 376.682 234.998 378.659 235.931 381.157C236.863 383.654 236.965 386.445 235.683 388.746C231.097 396.973 223.818 394.249 222.527 393.66L149.142 360.191C146.649 359.054 144.743 356.997 143.772 354.399C142.802 351.802 142.894 348.998 144.031 346.506C145.573 343.124 148.995 340.939 152.75 340.939ZM112.924 342.815L120.516 326.168C121.565 323.869 123.462 322.111 125.858 321.215C128.255 320.32 130.84 320.405 133.141 321.452L145.914 327.278C139.275 329.231 133.82 334.049 130.704 340.426C125.183 351.725 130.59 360.842 130.891 361.481L117.642 355.439C112.86 353.258 110.745 347.595 112.924 342.815ZM101.156 359.65C103.641 363.623 107.218 366.785 111.564 368.767L135.184 379.538C137.974 380.81 140.95 381.513 143.943 381.661L115.582 397.603C103.388 385.515 89.889 377.319 76.9877 371.76L101.156 359.65ZM17.7489 450.439C16.038 450.439 14.6454 449.047 14.6454 447.335V436.376C14.6454 415.782 26.0838 397.259 44.4967 388.034L59.0914 380.723C84.3597 388.65 115.817 407.205 132.053 450.439H17.7489ZM311.128 478.236C309.215 482.566 304.962 485.349 300.209 485.349H283.017C275.623 485.349 268.487 482.264 263.422 476.882C262.153 475.447 255.146 468.071 245.214 468.071C240.799 468.071 234.236 469.601 227.947 476.847C227.104 477.683 219.058 485.349 208.322 485.349H43.4069C36.3034 485.349 29.6795 481.609 26.0027 475.557L21.868 465.087H198.191C206.479 465.087 214.525 462.134 220.843 456.772L232.255 447.089C241.235 439.469 254.691 439.573 263.554 447.327L273.95 456.424C280.335 462.01 288.522 465.087 297.005 465.087H315.267L311.128 478.236ZM320.206 449.231C320.206 449.897 319.664 450.438 318.999 450.438H297.004C292.07 450.438 287.307 448.648 283.595 445.4L273.198 436.302C269.184 432.79 264.584 430.251 259.724 428.691C272.877 395.601 294.801 377.392 311.467 367.807C314.974 365.79 316.181 361.313 314.165 357.806C312.149 354.299 307.671 353.09 304.165 355.108C284.82 366.234 259.187 387.645 244.711 426.941C236.834 427.553 229.114 430.542 222.776 435.919L211.364 445.602C207.688 448.72 203.009 450.438 198.189 450.438H147.598C141.953 433.624 134.299 419.952 125.54 408.806L168.048 384.913L216.446 406.986C219.658 408.451 223.072 409.193 226.595 409.193C236.227 409.193 245.025 403.552 249.007 394.823C251.724 388.867 251.953 382.192 249.65 376.029C247.348 369.866 242.8 364.977 236.844 362.26L212.466 351.142C221.017 338.688 225.652 323.86 225.615 308.652L225.563 286.768H273.096C286.427 286.768 297.273 275.923 297.273 262.591C297.273 248.816 286.066 237.61 272.294 237.61H225.446L225.362 202.125H252.491C266.485 202.126 277.872 190.741 277.872 176.746V156.514H320.204V449.231H320.206ZM323.516 141.868H241.659C232.357 141.869 232.13 131.937 232.13 131.937C232.13 131.937 231.787 122.007 241.659 122.007H323.516C333.693 122.007 333.045 131.937 333.045 131.937C333.045 131.937 333.327 141.868 323.516 141.868Z" fill="black"/>
</svg>
