<svg width="653" height="500" viewBox="0 0 653 500" fill="none" xmlns="http://www.w3.org/2000/svg">
<path d="M651.002 321.215L629.218 277.792L629.203 277.759L623.973 267.333C621.127 261.658 615.944 257.512 609.784 255.981C603.624 254.45 597.102 255.689 591.932 259.372L529.12 304.076L413.885 295.245C404.823 294.523 397.152 288.271 394.619 279.541L385.262 246.89C382.806 238.216 385.933 228.925 393.132 223.5L506.006 139.139C508.535 137.248 510.117 134.353 510.342 131.203C510.566 128.053 509.409 124.963 507.172 122.734L487.975 103.601L584.412 77.2228C589.881 75.7248 594.864 72.8257 598.869 68.8108L648.986 18.5437C652.09 15.4331 653.016 10.7596 651.331 6.70135C649.647 2.64309 645.684 -0.00254572 641.29 1.8382e-06H316.158C311.232 1.8382e-06 306.922 3.3131 305.654 8.07321C305.443 8.99033 305.354 9.93038 305.388 10.8704H232.375C226.9 10.8997 221.519 12.2932 216.718 14.9249L39.5569 111.987C13.8916 126.093 -1.43835 153.643 0.106739 182.888L8.0462 325.137C8.58373 335.264 11.9745 345.032 17.8275 353.314L85.8575 450.175L96.2923 491.774C97.5036 496.609 101.849 500 106.833 500H608.569C613.553 500 617.898 496.609 619.109 491.774L630.017 448.296C630.041 448.198 630.002 448.1 630.023 448.003C630.055 447.862 630.144 447.751 630.171 447.607L651.984 328.041C652.409 325.719 652.063 323.323 651.002 321.215ZM380.117 206.092C365.713 216.941 359.454 235.524 364.359 252.877L373.716 285.533C378.779 302.982 394.109 315.479 412.221 316.921L527.451 325.752C532.528 326.134 537.58 324.732 541.734 321.787L604.541 277.077L606.512 281.007L558.848 336.425C552.612 343.673 543.524 347.837 533.963 347.826H419.438C387.107 347.827 358.268 327.5 347.401 297.049L312.419 198.287L314.209 199.632C321.681 205.271 331.932 205.468 339.616 200.12L465.981 112.38L482.916 129.255L380.117 206.092ZM615.102 21.7396L583.476 53.4567C582.15 54.7916 580.497 55.7558 578.682 56.2539L465.67 87.1659C463.19 87.3595 460.857 88.4168 459.075 90.1517C458.825 90.4829 458.596 90.8306 458.388 91.1898L327.275 182.261L260.848 132.287L378.773 73.1467C385.929 69.5534 390.534 62.3183 390.758 54.3126C390.982 46.3069 386.79 38.826 379.846 34.8378H379.84L356.986 21.7396H615.102V21.7396ZM600.088 478.262H115.315L109.858 456.522H605.544L600.088 478.262ZM610.408 434.783H101.612L35.6069 340.805C32.1041 335.855 30.0749 330.014 29.7527 323.959L21.8132 181.673C20.7114 160.79 31.6608 141.121 49.9904 131.057L227.195 33.9729C228.784 33.1017 230.563 32.6329 232.375 32.6087H332.232L369.036 53.6999L374.44 44.2689L369.036 53.7114L251.105 112.852C244.38 116.231 239.88 122.846 239.205 130.341C238.53 137.836 241.776 145.148 247.788 149.674L281.673 175.16C281.693 175.965 281.807 176.765 282.01 177.543L326.911 304.311C340.863 343.432 377.906 369.556 419.441 369.565H533.965C549.862 369.578 564.973 362.65 575.336 350.596L617.08 302.069L629.944 327.711L610.408 434.783Z" fill="black"/>
</svg>
