<svg width="501" height="500" viewBox="0 0 501 500" fill="none" xmlns="http://www.w3.org/2000/svg">
<path d="M492.667 325H490.987C490.317 321.708 489.447 318.459 488.383 315.273L489.834 314.44C491.747 313.335 493.143 311.516 493.716 309.382C494.288 307.248 493.99 304.974 492.887 303.06C492.887 303.06 485.201 288.894 483.169 286.821C481.878 285.53 480.195 284.707 478.383 284.48C476.572 284.254 474.738 284.638 473.169 285.571L471.704 286.417C469.479 283.905 467.104 281.53 464.592 279.304C465.338 277.931 465.962 276.495 466.458 275.012C466.725 273.342 466.48 271.629 465.753 270.101C465.027 268.572 463.854 267.3 462.389 266.453L447.951 258.12C446.037 257.015 443.763 256.716 441.628 257.288C439.494 257.86 437.674 259.257 436.569 261.171L435.736 262.622C432.549 261.557 429.301 260.688 426.009 260.018V258.333C426.009 256.123 425.131 254.004 423.568 252.441C422.005 250.878 419.885 250 417.675 250H404.508L384.221 221.02L420.302 207.906C422.068 207.318 423.586 206.156 424.615 204.605C425.644 203.054 426.123 201.203 425.978 199.348C425.832 197.492 425.069 195.739 423.812 194.367C422.554 192.995 420.873 192.084 419.037 191.779L369.037 183.446C367.817 183.243 366.567 183.315 365.377 183.654L359.214 185.417L321.448 133.75C318.037 129.116 313.71 125.234 308.734 122.346C303.758 119.457 298.241 117.623 292.526 116.958C286.439 110.833 275.479 107.117 268.88 108.679C260.661 109.942 213.305 123.53 213.305 123.53L199.963 100.339L210.111 94.253L230.931 104.579C231.92 105.07 232.997 105.359 234.098 105.43C235.2 105.501 236.304 105.352 237.348 104.993C238.392 104.633 239.354 104.07 240.178 103.336C241.002 102.602 241.672 101.711 242.149 100.716L249.888 84.5697L262.368 65.8488L268.447 68.5509C270.055 69.2665 271.849 69.4544 273.57 69.0879C275.292 68.7213 276.853 67.8189 278.03 66.5103C278.03 66.5103 291.77 51.0009 292.138 49.9999C292.747 48.3774 292.836 46.6057 292.394 44.9301C291.951 43.2546 290.999 41.7581 289.668 40.6478L256.504 13.0092C249.486 7.16016 241.145 3.11295 232.207 1.21907C223.27 -0.674807 214.004 -0.358085 205.217 2.14173C196.429 4.64155 188.384 9.24887 181.782 15.5636C175.179 21.8783 170.217 29.7094 167.328 38.3769L162.719 52.203C144.229 54.1665 126.177 57.1072 107.25 71.6145C85.5647 88.2363 75.2876 111.9 73.1137 124.982L71.6022 134.045L88.0418 136.786L89.5543 127.718C91.4719 116.196 96.3885 105.382 103.81 96.363C111.232 87.3438 120.897 80.4372 131.834 76.3374C131.729 80.4936 132.649 84.6116 134.513 88.328C134.536 88.3749 134.56 88.4207 134.583 88.4676L149.853 117.622L146.215 119.184C140.213 121.748 135.097 126.018 131.503 131.466C127.909 136.913 125.995 143.297 126 149.823V170.695L79.2824 150.673C78.1217 150.175 76.8631 149.948 75.6017 150.008C74.3403 150.069 73.1091 150.415 72.0011 151.021C70.8931 151.627 69.9373 152.476 69.2059 153.506C68.4746 154.535 67.9867 155.718 67.7793 156.963L64.7043 175.417C62.8942 186.277 64.7192 197.431 69.8961 207.147C75.073 216.864 83.3124 224.601 93.3356 229.156L141.89 251.226L54.5147 257.467L55.4866 254.55C55.9978 253.025 56.9379 251.679 58.1942 250.675C59.4505 249.671 60.9697 249.05 62.5699 248.886L90.4376 246.1L88.7804 229.517L60.9064 232.302C56.1107 232.789 51.5574 234.649 47.792 237.659C44.0267 240.669 41.2092 244.7 39.6772 249.271L36.2064 259.687L7.31262 266.916C5.204 267.442 3.38437 268.771 2.24172 270.619C1.09906 272.468 0.723802 274.69 1.19595 276.811C1.61058 278.538 2.55383 280.093 3.89417 281.258C5.23451 282.424 6.90512 283.142 8.67304 283.312L81.3981 291.393L132.795 325.657L131.28 324.783C130.332 324.236 129.286 323.881 128.201 323.738C127.115 323.596 126.013 323.668 124.956 323.952C123.898 324.236 122.907 324.725 122.039 325.391C121.171 326.058 120.443 326.889 119.896 327.837L119.063 329.285C115.876 328.221 112.628 327.351 109.336 326.681V325C109.336 322.79 108.458 320.67 106.895 319.107C105.332 317.545 103.212 316.667 101.002 316.667H84.3335C82.1233 316.667 80.0037 317.545 78.4409 319.107C76.8781 320.67 76.0001 322.79 76.0001 325V326.68C72.708 327.35 69.4596 328.22 66.2731 329.284L65.4397 327.833C64.3352 325.92 62.516 324.524 60.3822 323.951C58.2484 323.378 55.9745 323.677 54.0606 324.78C54.0606 324.78 37.8658 334.332 37.1658 335.26C36.1658 336.57 35.5758 338.147 35.47 339.791C35.3641 341.436 35.7472 343.075 36.571 344.502L37.4168 345.967C34.9049 348.192 32.5297 350.567 30.3043 353.079C28.9309 352.333 27.4949 351.709 26.0126 351.213C24.3418 350.946 22.629 351.191 21.1007 351.918C19.5724 352.644 18.3006 353.818 17.4532 355.282L9.11991 369.723C8.01647 371.637 7.71823 373.911 8.29075 376.045C8.86327 378.178 10.2597 379.997 12.173 381.102L13.6241 381.935C12.5595 385.122 11.6899 388.37 11.0199 391.662H9.33345C7.12332 391.662 5.0037 392.54 3.4409 394.103C1.87809 395.666 1.00012 397.786 1.00012 399.996V416.662C1.00012 418.873 1.87809 420.992 3.4409 422.555C5.0037 424.118 7.12332 424.996 9.33345 424.996H11.0137C11.6836 428.288 12.5533 431.536 13.6178 434.723L12.1668 435.556C10.2534 436.661 8.85703 438.48 8.28451 440.614C7.71199 442.748 8.01022 445.021 9.11366 446.935C9.11366 446.935 18.2147 462.56 18.7137 463.058C20.0126 464.373 21.7103 465.22 23.5416 465.467C25.3729 465.714 27.2346 465.348 28.8355 464.425L30.3001 463.579C32.5256 466.091 34.9007 468.466 37.4126 470.692L36.6116 472.078C36.0454 473.025 35.6738 474.076 35.5185 475.168C35.3632 476.261 35.4272 477.374 35.707 478.441C35.9867 479.509 36.4764 480.51 37.1476 481.386C37.8188 482.261 38.6578 482.995 39.6158 483.543L54.0533 491.876C55.9673 492.981 58.2417 493.28 60.3762 492.708C62.5108 492.135 64.3306 490.739 65.4356 488.825L66.2689 487.374C69.4554 488.439 72.7038 489.308 75.996 489.978V491.667C75.996 493.877 76.874 495.996 78.4368 497.559C79.9996 499.122 82.1192 500 84.3293 500H100.996C103.206 500 105.326 499.122 106.889 497.559C108.451 495.996 109.329 493.877 109.329 491.667V489.986C112.622 489.317 115.87 488.447 119.056 487.382L119.89 488.833C120.994 490.747 122.813 492.143 124.947 492.716C127.081 493.288 129.355 492.99 131.269 491.886C131.269 491.886 147.464 482.334 148.164 481.406C149.164 480.096 149.754 478.52 149.859 476.875C149.965 475.231 149.582 473.592 148.758 472.165L147.913 470.7C150.425 468.475 152.8 466.099 155.025 463.587L156.412 464.389C157.359 464.955 158.409 465.326 159.502 465.482C160.595 465.637 161.707 465.573 162.775 465.293C163.842 465.013 164.843 464.524 165.719 463.853C166.595 463.181 167.328 462.342 167.876 461.384L176.21 446.944C177.313 445.03 177.611 442.756 177.039 440.622C176.466 438.488 175.07 436.669 173.156 435.565L171.705 434.731C172.77 431.545 173.64 428.296 174.31 425.004H176C178.21 425.004 180.33 424.126 181.893 422.563C183.456 421.001 184.334 418.881 184.334 416.671V400C184.334 397.79 183.456 395.67 181.893 394.107C180.33 392.545 178.21 391.667 176 391.667H174.317C173.962 389.923 173.54 388.193 173.073 386.475L178.309 383.333H259.334C260.428 383.333 261.512 383.118 262.523 382.699C263.534 382.28 264.452 381.666 265.226 380.893L290.226 355.893C291 355.119 291.614 354.2 292.033 353.189C292.451 352.178 292.667 351.094 292.667 350V270.833L315.659 253.585L338.868 284.835C336.864 285.453 335.167 286.805 334.116 288.62L325.783 303.06C324.679 304.974 324.381 307.248 324.953 309.382C325.526 311.516 326.922 313.335 328.836 314.44L330.287 315.273C329.222 318.459 328.352 321.708 327.683 325H326C323.79 325 321.67 325.878 320.108 327.441C318.545 329.004 317.667 331.123 317.667 333.333V350C317.667 352.21 318.545 354.33 320.108 355.893C321.67 357.455 323.79 358.333 326 358.333H327.68C328.35 361.625 329.22 364.874 330.285 368.06L328.834 368.894C326.92 369.998 325.524 371.817 324.951 373.951C324.379 376.085 324.677 378.359 325.78 380.273C325.78 380.273 334.881 395.898 335.38 396.396C336.679 397.71 338.377 398.557 340.208 398.804C342.04 399.052 343.901 398.685 345.502 397.762L346.967 396.917C349.192 399.429 351.567 401.804 354.079 404.029L353.278 405.416C352.712 406.363 352.341 407.413 352.185 408.506C352.03 409.599 352.094 410.711 352.374 411.779C352.653 412.846 353.143 413.847 353.814 414.723C354.486 415.599 355.325 416.332 356.283 416.88L370.72 425.213C372.634 426.318 374.908 426.617 377.043 426.045C379.178 425.473 380.997 424.076 382.102 422.162L382.936 420.711C386.122 421.776 389.371 422.646 392.663 423.316V425C392.663 427.21 393.541 429.33 395.104 430.893C396.666 432.455 398.786 433.333 400.996 433.333H417.663C419.873 433.333 421.993 432.455 423.555 430.893C425.118 429.33 425.996 427.21 425.996 425V423.32C429.288 422.65 432.537 421.78 435.723 420.716L436.557 422.167C437.661 424.08 439.48 425.476 441.614 426.049C443.748 426.621 446.022 426.323 447.936 425.22C447.936 425.22 461.417 418.055 464.839 414.74C467.347 412.309 467.07 408.328 465.434 405.498L464.588 404.033C467.1 401.808 469.475 399.433 471.7 396.921L473.087 397.722C474.034 398.288 475.085 398.66 476.177 398.815C477.27 398.97 478.382 398.906 479.45 398.626C480.517 398.347 481.518 397.857 482.394 397.186C483.27 396.515 484.003 395.676 484.551 394.718L492.885 380.277C493.988 378.363 494.286 376.089 493.714 373.955C493.141 371.822 491.745 370.002 489.832 368.898L488.38 368.065C489.445 364.878 490.315 361.63 490.985 358.337H492.667C494.877 358.337 496.997 357.459 498.56 355.897C500.122 354.334 501 352.214 501 350.004V333.333C501 331.123 500.122 329.004 498.56 327.441C496.997 325.878 494.877 325 492.667 325ZM376.575 335.596L395.352 360.875C396.66 362.635 398.609 363.809 400.777 364.142C402.944 364.475 405.156 363.94 406.932 362.653L430.89 345.29C431.779 344.646 432.531 343.833 433.105 342.897C433.679 341.962 434.062 340.922 434.233 339.838C434.404 338.754 434.359 337.647 434.1 336.58C433.842 335.514 433.376 334.509 432.728 333.623L414.542 308.743C421.119 309.762 427.242 312.722 432.126 317.244C437.01 321.765 440.433 327.641 441.956 334.12C443.479 340.599 443.033 347.385 440.675 353.609C438.317 359.833 434.155 365.211 428.721 369.054C423.287 372.898 416.83 375.031 410.176 375.181C403.522 375.332 396.975 373.492 391.374 369.897C385.772 366.303 381.371 361.118 378.735 355.007C376.099 348.896 375.347 342.137 376.576 335.596H376.575ZM414.336 336.704L403.815 344.325L354.103 277.396L365.451 269.832L414.336 336.704ZM368.572 227.728L379.798 243.77L371.562 249.95L371.458 249.806L358.484 232.057L368.572 227.728ZM355.606 256.361L344.148 263.996L311.32 219.8L323.122 211.932L355.606 256.361ZM382.941 262.619L382.79 262.357L389.362 257.427L391.38 260.309C389.141 260.803 386.915 261.369 384.72 262.047C384.126 262.232 383.533 262.422 382.941 262.619ZM368.149 200.196L384.24 202.877L348.389 218.247L340.889 207.986L368.149 200.196ZM307.99 143.584L337.015 183.294L327.773 190.043L298.31 149.735C300.825 145.312 300.998 137.784 300.99 137.124C303.717 138.807 306.094 141.001 307.991 143.584H307.99ZM211.625 141.346L267.392 125.408C268.036 125.43 270.996 124.992 271.836 124.992C273.537 124.991 275.221 125.338 276.784 126.011C278.347 126.684 279.756 127.669 280.924 128.906C282.093 130.143 282.996 131.605 283.58 133.204C284.163 134.802 284.413 136.503 284.316 138.202C284.102 141.36 282.712 144.323 280.42 146.507C278.129 148.691 275.103 149.937 271.938 150C269.517 150.021 267.143 149.337 265.104 148.032C263.065 146.727 261.45 144.858 260.455 142.651C259.569 140.705 257.969 139.174 255.986 138.375C254.002 137.576 251.788 137.57 249.8 138.358L216.467 151.573C209.551 154.314 201.859 154.362 194.91 151.707C187.96 149.052 182.259 143.888 178.932 137.234L178.862 137.096L171 122.083L187.861 112.721L202.109 137.485C203.036 139.099 204.477 140.356 206.202 141.056C207.926 141.755 209.836 141.857 211.625 141.346ZM222.089 48.854L246.703 59.304L240.619 68.428L219.528 53.4374C219.003 53.064 218.633 52.5115 218.488 51.884C218.342 51.2566 218.431 50.5975 218.738 50.0311V50.0311C219.05 49.453 219.566 49.012 220.185 48.7943C220.805 48.5766 221.484 48.5979 222.089 48.854V48.854ZM183.14 43.6457C185.171 37.5523 188.66 32.047 193.302 27.6077C197.944 23.1685 203.6 19.9296 209.778 18.1722C215.956 16.4149 222.469 16.1923 228.753 17.5237C235.037 18.8552 240.9 21.7004 245.835 25.8124L272.348 47.9072L269.688 50.8634L262.718 47.7655C262.622 47.7228 262.525 47.6822 262.428 47.6436L229.834 34.6061C225.566 32.8985 220.823 32.8 216.489 34.3289C212.154 35.8579 208.523 38.91 206.271 42.9171C204.019 46.9242 203.3 51.6132 204.248 56.1108C205.196 60.6084 207.746 64.6083 211.424 67.3655L232.102 82.8749L230.606 85.8676L177.857 59.4926L183.14 43.6457ZM164.572 71.9582L179.542 98.2718L163.262 107.317L149.043 80.4863C148.493 79.4501 148.155 78.3151 148.048 77.147C147.94 75.979 148.066 74.8013 148.418 73.6823C148.77 72.5633 149.34 71.5253 150.096 70.6287C150.853 69.7321 151.779 68.9947 152.823 68.4592V68.4592C154.855 67.414 157.211 67.1945 159.401 67.8466C161.591 68.4987 163.443 69.9719 164.572 71.9582V71.9582ZM81.1449 178.156L82.4752 170.175L130.826 190.897L183.453 217.209C186.229 218.585 188.563 220.711 190.191 223.346C191.82 225.981 192.677 229.02 192.667 232.118V266.667H167.667V250C167.667 248.4 167.206 246.834 166.34 245.488C165.474 244.143 164.239 243.076 162.782 242.413L100.231 213.976C93.5557 210.933 88.0685 205.775 84.6184 199.3C81.1684 192.826 79.9476 185.394 81.1449 178.156V178.156ZM226 341.667C222.704 341.667 219.481 340.689 216.741 338.858C214 337.026 211.864 334.423 210.602 331.378C209.341 328.333 209.011 324.981 209.654 321.748C210.297 318.515 211.884 315.546 214.215 313.215C216.546 310.884 219.516 309.297 222.749 308.654C225.982 308.01 229.333 308.34 232.378 309.602C235.424 310.863 238.027 313 239.858 315.74C241.689 318.481 242.667 321.704 242.667 325C242.662 329.419 240.904 333.655 237.78 336.779C234.655 339.904 230.419 341.661 226 341.667V341.667ZM242.667 296.151C237.604 293.214 231.854 291.667 226 291.667C220.147 291.667 214.397 293.214 209.334 296.151V275H242.667V296.151ZM95.1929 413.766L87.7824 402.649L151 364.719V375C151 376.592 151.458 378.151 152.32 379.49L95.1929 413.766ZM85.2543 275.051L68.4262 273.181L151 267.283V317.762L88.9564 276.4C87.8479 275.661 86.5784 275.198 85.2543 275.051ZM151 337.793V345.281L148.677 346.675C148.421 346.443 148.178 346.2 147.919 345.971L148.767 344.502C149.314 343.554 149.67 342.508 149.813 341.422C149.956 340.337 149.883 339.234 149.6 338.177C149.429 337.55 149.184 336.946 148.871 336.377L151 337.793ZM158.917 400.918C159.143 402.956 160.112 404.84 161.64 406.208C163.168 407.576 165.147 408.333 167.198 408.333C165.146 408.333 163.166 409.09 161.638 410.459C160.109 411.829 159.14 413.713 158.915 415.753C158.181 422.407 156.44 428.911 153.752 435.043C152.933 436.914 152.83 439.021 153.462 440.963C154.094 442.906 155.417 444.548 157.18 445.579C155.406 444.565 153.321 444.238 151.321 444.66C149.321 445.083 147.547 446.225 146.335 447.871C142.359 453.265 137.595 458.029 132.201 462.004C130.556 463.216 129.413 464.991 128.99 466.991C128.568 468.99 128.895 471.076 129.91 472.85C128.879 471.086 127.236 469.763 125.293 469.131C123.35 468.499 121.243 468.602 119.372 469.422C113.241 472.11 106.737 473.85 100.082 474.584C98.0441 474.81 96.1606 475.78 94.7924 477.307C93.4242 478.835 92.6674 480.814 92.6668 482.865C92.6669 480.813 91.9098 478.833 90.5407 477.304C89.1716 475.776 87.2867 474.806 85.247 474.581C78.5928 473.847 72.0887 472.107 65.9574 469.419C64.0861 468.599 61.979 468.496 60.0363 469.128C58.0937 469.76 56.4508 471.083 55.4199 472.847C56.4344 471.073 56.7615 468.987 56.339 466.988C55.9165 464.988 54.7738 463.213 53.1283 462.001C47.7345 458.026 42.97 453.261 38.9949 447.868C37.7827 446.222 36.008 445.079 34.0083 444.657C32.0086 444.234 29.9234 444.561 28.1491 445.576C29.9125 444.545 31.2359 442.902 31.8679 440.96C32.4999 439.018 32.3965 436.911 31.5772 435.04C28.8904 428.909 27.1505 422.406 26.4168 415.753C26.1919 413.714 25.2226 411.829 23.6946 410.46C22.1665 409.091 20.1872 408.334 18.1355 408.333C20.1875 408.333 22.1674 407.576 23.6959 406.207C25.2243 404.838 26.1939 402.953 26.4189 400.914C27.1529 394.259 28.8936 387.755 31.5814 381.624C32.4006 379.753 32.5041 377.646 31.8721 375.703C31.2401 373.761 29.9167 372.118 28.1533 371.087C29.9275 372.102 32.0128 372.429 34.0125 372.007C36.0122 371.584 37.7869 370.441 38.9991 368.796C42.9741 363.402 47.7386 358.637 53.1324 354.662C54.778 353.45 55.9207 351.676 56.3432 349.676C56.7657 347.676 56.4386 345.591 55.4241 343.817C56.455 345.58 58.0978 346.904 60.0405 347.536C61.9832 348.168 64.0903 348.064 65.9616 347.245C72.0916 344.558 78.5943 342.817 85.247 342.083C87.2863 341.858 89.1709 340.889 90.54 339.361C91.9091 337.833 92.6664 335.854 92.6668 333.802C92.6668 335.854 93.4238 337.834 94.7929 339.362C96.1621 340.891 98.047 341.86 100.087 342.085C106.741 342.819 113.245 344.56 119.376 347.248C121.247 348.067 123.355 348.171 125.297 347.539C127.24 346.907 128.883 345.583 129.914 343.82C128.899 345.592 128.571 347.676 128.991 349.674C129.412 351.673 130.551 353.448 132.194 354.661C132.665 355.008 133.119 355.375 133.579 355.734L71.7126 392.854C70.7453 393.434 69.9058 394.205 69.2451 395.119C68.5844 396.033 68.1161 397.072 67.8687 398.173C67.6214 399.273 67.6 400.413 67.8059 401.522C68.0119 402.631 68.4408 403.687 69.0668 404.625L85.7335 429.625C86.9216 431.406 88.7499 432.662 90.8391 433.132C92.9284 433.601 95.1182 433.249 96.9543 432.147L125.299 415.141C123.976 421.458 120.845 427.255 116.288 431.826C111.731 436.398 105.943 439.546 99.63 440.89C93.3165 442.233 86.7488 441.713 80.7254 439.392C74.7021 437.072 69.4827 433.052 65.7019 427.82C61.9212 422.589 59.742 416.371 59.4293 409.924C59.1167 403.477 60.684 397.078 63.9408 391.505C67.1976 385.932 72.0035 381.425 77.774 378.533C83.5445 375.641 90.0311 374.487 96.4449 375.213L98.3199 358.651C88.2546 357.506 78.0787 359.445 69.1399 364.211C60.2012 368.978 52.9211 376.348 48.2639 385.344C43.6067 394.34 41.792 404.539 43.0601 414.59C44.3283 424.64 48.6194 434.069 55.3653 441.626C62.1112 449.184 70.9937 454.514 80.8363 456.911C90.679 459.308 101.018 458.658 110.483 455.049C119.948 451.439 128.094 445.039 133.841 436.697C139.589 428.355 142.666 418.464 142.667 408.333C142.667 407.157 142.611 405.979 142.527 404.801L158.054 395.485C158.407 397.285 158.714 399.095 158.917 400.919V400.918ZM167.667 366.667V283.333H192.667V341.667C192.667 343.038 193.006 344.389 193.653 345.598C194.3 346.808 195.236 347.839 196.377 348.6L217.667 362.793V366.667H167.667ZM276 346.549L255.882 366.667H234.334V358.333C246.632 355.458 259.26 341.016 259.26 333.638C259.26 326.693 259.334 275 259.334 275H276V346.549ZM281.555 258.333H209.334V232.118C209.355 225.923 207.64 219.846 204.383 214.576C201.126 209.307 196.459 205.055 190.909 202.303L142.667 178.183V149.823C142.664 146.56 143.62 143.368 145.417 140.644C147.213 137.92 149.77 135.783 152.771 134.501L157.6 132.429L164.058 144.764C169.264 155.126 178.161 163.162 188.996 167.289C199.832 171.417 211.821 171.337 222.6 167.066L249.602 156.361C252.339 159.588 255.745 162.181 259.584 163.96C263.423 165.74 267.602 166.663 271.834 166.667H272.08C277.326 166.625 282.463 165.161 286.943 162.431L313.281 198.465L301.371 206.403L274.354 170.031C273.413 168.764 272.13 167.79 270.657 167.223C269.183 166.656 267.579 166.519 266.03 166.829L216 177.5L217.91 185.312C218.42 187.4 219.717 189.21 221.53 190.364C223.343 191.518 225.531 191.928 227.639 191.506L264.129 184.208L275.082 198.958C253.596 194.576 231.321 196.146 210.663 203.5L216.26 219.199C240.886 210.425 267.922 211.297 291.931 221.641L305.72 240.208L281.555 258.333ZM475.584 349.086C474.85 355.741 473.109 362.245 470.421 368.376C469.602 370.247 469.498 372.354 470.13 374.296C470.762 376.239 472.086 377.882 473.849 378.912C472.075 377.898 469.99 377.571 467.99 377.993C465.99 378.416 464.216 379.559 463.003 381.204C459.028 386.598 454.264 391.362 448.87 395.337C447.224 396.55 446.082 398.324 445.659 400.324C445.237 402.324 445.564 404.409 446.578 406.183C445.547 404.42 443.905 403.096 441.962 402.464C440.019 401.832 437.912 401.936 436.041 402.755C429.91 405.443 423.406 407.184 416.751 407.918C414.713 408.143 412.829 409.112 411.46 410.64C410.091 412.168 409.334 414.147 409.334 416.198C409.334 414.146 408.577 412.166 407.207 410.638C405.838 409.109 403.953 408.139 401.914 407.915C395.26 407.181 388.756 405.44 382.624 402.752C380.753 401.933 378.646 401.829 376.703 402.461C374.76 403.093 373.118 404.416 372.087 406.18C373.101 404.406 373.428 402.321 373.006 400.321C372.583 398.321 371.441 396.547 369.795 395.334C364.401 391.359 359.637 386.595 355.662 381.201C354.449 379.555 352.675 378.413 350.675 377.99C348.675 377.568 346.59 377.895 344.816 378.909C346.579 377.878 347.903 376.236 348.535 374.293C349.167 372.351 349.063 370.244 348.244 368.373C345.556 362.242 343.816 355.737 343.081 349.083C342.856 347.045 341.887 345.161 340.359 343.793C338.832 342.425 336.853 341.667 334.802 341.667C336.854 341.667 338.834 340.91 340.363 339.54C341.891 338.171 342.861 336.286 343.086 334.247C343.82 327.593 345.56 321.089 348.248 314.957C349.067 313.086 349.171 310.979 348.539 309.037C347.907 307.094 346.583 305.452 344.82 304.421C346.118 305.163 347.592 305.542 349.087 305.518C350.583 305.495 352.044 305.069 353.318 304.286L364.555 319.415C359.548 329.445 358.045 340.863 360.287 351.848C362.53 362.832 368.388 372.748 376.926 380.013C385.465 387.277 396.191 391.471 407.393 391.925C418.594 392.379 429.625 389.067 438.723 382.517C447.822 375.968 454.463 366.558 457.587 355.792C460.711 345.025 460.138 333.522 455.958 323.119C451.779 312.717 444.234 304.015 434.529 298.403C424.824 292.791 413.519 290.592 402.418 292.158L391.635 277.406C395 276.472 398.435 275.808 401.906 275.419C403.947 275.195 405.834 274.227 407.205 272.698C408.575 271.169 409.333 269.188 409.334 267.135C409.334 269.187 410.091 271.167 411.46 272.696C412.829 274.224 414.714 275.194 416.753 275.419C423.408 276.153 429.912 277.893 436.043 280.581C437.914 281.401 440.021 281.504 441.964 280.872C443.907 280.24 445.55 278.917 446.58 277.153C445.566 278.927 445.239 281.013 445.661 283.012C446.084 285.012 447.227 286.787 448.872 287.999C454.266 291.974 459.03 296.738 463.005 302.132C464.218 303.778 465.992 304.92 467.992 305.343C469.992 305.766 472.077 305.438 473.851 304.424C472.088 305.455 470.764 307.097 470.132 309.04C469.5 310.982 469.604 313.089 470.423 314.96C473.111 321.092 474.852 327.596 475.586 334.25C475.811 336.288 476.781 338.172 478.308 339.54C479.836 340.909 481.814 341.666 483.865 341.667C481.813 341.667 479.834 342.424 478.306 343.793C476.778 345.163 475.809 347.047 475.584 349.086Z" fill="black"/>
</svg>
